<svg width="24" height="24" viewBox="0 0 24 24" fill="none" xmlns="http://www.w3.org/2000/svg">
<path d="M23.9461 1.02871C24.0007 0.892413 24.0141 0.743103 23.9846 0.599288C23.9551 0.455474 23.884 0.32348 23.7802 0.21967C23.6764 0.11586 23.5444 0.0448002 23.4006 0.015299C23.2568 -0.0142021 23.1074 -0.000846891 22.9711 0.0537091L1.15065 8.78221H1.14915L0.471148 9.05221C0.342733 9.10343 0.230976 9.18915 0.148222 9.2999C0.0654668 9.41066 0.0149351 9.54213 0.00220827 9.67979C-0.0105185 9.81746 0.0150548 9.95597 0.0761036 10.08C0.137152 10.2041 0.2313 10.3088 0.348148 10.3827L0.963148 10.7727L0.964648 10.7757L8.45715 15.5427L13.2241 23.0352L13.2271 23.0382L13.6171 23.6532C13.6913 23.7696 13.7961 23.8633 13.92 23.924C14.044 23.9846 14.1823 24.0099 14.3197 23.997C14.4571 23.9842 14.5883 23.9336 14.6988 23.851C14.8093 23.7684 14.8949 23.6569 14.9461 23.5287L23.9461 1.02871ZM21.1966 3.86371L9.95565 15.1047L9.63315 14.5977C9.57406 14.5047 9.49519 14.4258 9.40215 14.3667L8.89515 14.0442L20.1361 2.80321L21.9031 2.09671L21.1966 3.86371Z" fill="white"/>
</svg>
